Coordinates
version=1
nRows=60
nColumns=12
inDegrees=yes

Units are S.I. units (second, meters, Newtons, ...)
Angles are in degrees

endheader
time	SC_y	SC_z	SC_x	AC_y	AC_z	AC_x	GH_y	GH_z	GH_yy	EL_x	PS_y
       0.0              -15.75           36.5          70.38          38.08         -1.246         -13.29         -35.99          69.37          167.8          9.229          137.5
   0.04236              -15.75           36.5          70.38          38.08         -1.248         -13.29         -35.96          69.36          167.8          9.233          137.5
   0.08471              -15.76          36.49          70.38          38.08         -1.249         -13.29         -35.93          69.35          167.7          9.238          137.5
    0.1271              -15.76          36.49          70.38          38.08          -1.25         -13.29          -35.9          69.34          167.7          9.243          137.5
    0.1694              -15.76          36.48          70.37          38.08         -1.251         -13.29         -35.87          69.33          167.6          9.249          137.4
    0.2118              -15.76          36.47          70.37          38.08         -1.252         -13.29         -35.84          69.31          167.5          9.254          137.4
    0.2541              -15.76          36.47          70.37          38.08         -1.254         -13.29          -35.8           69.3          167.5           9.26          137.4
    0.2965              -15.76          36.46          70.37          38.08         -1.255         -13.29         -35.76          69.29          167.4          9.267          137.4
    0.3389              -15.76          36.45          70.37          38.08         -1.257         -13.29         -35.72          69.27          167.3          9.274          137.3
    0.3812              -15.77          36.45          70.37          38.08         -1.259         -13.29         -35.67          69.26          167.3          9.282          137.3
    0.4236              -15.77          36.44          70.36          38.08         -1.261         -13.29         -35.62          69.24          167.2           9.29          137.3
    0.4659              -15.77          36.43          70.36          38.08         -1.263         -13.29         -35.57          69.23          167.1          9.298          137.2
    0.5083              -15.77          36.42          70.36          38.08         -1.265         -13.29         -35.52          69.21          167.0          9.308          137.2
    0.5506              -15.78          36.41          70.36          38.08         -1.267         -13.29         -35.45          69.19          166.9          9.318          137.2
     0.593              -15.78           36.4          70.35          38.08          -1.27         -13.29         -35.39          69.16          166.8          9.329          137.1
    0.6353              -15.78          36.39          70.35          38.09         -1.273         -13.29         -35.32          69.14          166.7          9.341          137.1
    0.6777              -15.78          36.37          70.35          38.09         -1.276         -13.29         -35.24          69.11          166.5          9.354          137.0
    0.7201              -15.79          36.36          70.34          38.09         -1.279         -13.29         -35.16          69.08          166.4          9.368          137.0
    0.7624              -15.79          36.34          70.34          38.09         -1.283         -13.29         -35.06          69.05          166.2          9.383          136.9
    0.8048              -15.79          36.33          70.33          38.09         -1.287         -13.29         -34.96          69.02          166.0            9.4          136.8
    0.8471               -15.8          36.31          70.33          38.09         -1.291         -13.29         -34.85          68.98          165.9          9.419          136.8
    0.8895               -15.8          36.29          70.32          38.09         -1.296         -13.29         -34.73          68.94          165.6          9.439          136.7
    0.9318              -15.81          36.27          70.32           38.1         -1.301         -13.28         -34.59          68.89          165.4          9.461          136.6
    0.9742              -15.82          36.24          70.31           38.1         -1.307         -13.28         -34.44          68.84          165.2          9.486          136.5
     1.017              -15.82          36.21           70.3           38.1         -1.313         -13.28         -34.28          68.79          164.9          9.514          136.4
     1.059              -15.83          36.18           70.3           38.1          -1.32         -13.28         -34.09          68.73          164.5          9.545          136.2
     1.101              -15.84          36.15          70.29          38.11         -1.328         -13.28         -33.89          68.66          164.2           9.58          136.1
     1.144              -15.85          36.11          70.28          38.11         -1.338         -13.28         -33.65          68.58          163.8          9.619          135.9
     1.186              -15.86          36.06          70.26          38.12         -1.348         -13.28         -33.39          68.49          163.3          9.663          135.8
     1.228              -15.87          36.01          70.25          38.12          -1.36         -13.28         -33.09          68.39          162.8          9.713          135.6
     1.271              -15.88          35.96          70.24          38.12         -1.373         -13.27         -32.75          68.27          162.2           9.77          135.3
     1.313               -15.9          35.89          70.22          38.13         -1.388         -13.27         -32.35          68.14          161.6          9.835          135.1
     1.355              -15.92          35.81           70.2          38.14         -1.406         -13.27          -31.9          67.98          160.8          9.911          134.8
     1.398              -15.94          35.72          70.18          38.15         -1.426         -13.26         -31.37          67.81          159.9          9.998          134.4
      1.44              -15.96          35.62          70.15          38.16          -1.45         -13.26         -30.76           67.6          158.8           10.1          134.0
     1.482              -15.99           35.5          70.12          38.17         -1.479         -13.25         -30.03          67.35          157.6          10.22          133.5
     1.525              -16.03          35.35          70.08          38.18         -1.512         -13.25         -29.17          67.06          156.1          10.37          132.9
     1.567              -16.07          35.18          70.03          38.19         -1.553         -13.24         -28.13          66.71          154.3          10.54          132.2
      1.61              -16.12          34.97          69.98          38.21         -1.602         -13.23         -26.88          66.29          152.2          10.75          131.4
     1.652              -16.18          34.71          69.91          38.24         -1.661         -13.22         -25.35          65.77          149.5           11.0          130.3
     1.694              -16.25           34.4          69.83          38.27         -1.735         -13.21         -23.46          65.13          146.3          11.32          129.0
     1.737              -16.35           34.0          69.73           38.3         -1.827          -13.2         -21.11          64.34          142.2          11.71          127.4
     1.779              -16.47           33.5           69.6          38.35         -1.942         -13.18         -18.15          63.34          137.1           12.2          125.4
     1.821              -16.62          32.87          69.43           38.4         -2.089         -13.15         -14.38          62.06          130.7          12.83          122.9
     1.864              -16.81          32.06          69.22          38.48         -2.277         -13.12         -9.553          60.43          122.4          13.64          119.6
     1.906              -17.06          31.02          68.95          38.57         -2.519         -13.08         -3.362          58.34          111.7          14.67          115.4
     1.948              -17.37          29.69           68.6          38.69         -2.827         -13.03          4.546          55.67          98.15          15.99          110.1
     1.991              -17.77          28.02          68.16          38.84         -3.215         -12.96          14.49          52.31          81.06          17.65          103.3
     2.033              -18.25          25.99          67.63          39.03         -3.687         -12.88          26.61          48.21          60.24          19.67           95.1
     2.075              -18.81          23.63          67.01          39.24         -4.235         -12.79          40.65          43.47           36.1          22.01          85.58
     2.118              -19.42          21.07          66.35          39.47         -4.828         -12.69          55.86          38.33          9.971          24.54          75.27
      2.16              -20.03          18.52          65.68           39.7          -5.42         -12.59          71.07          33.19         -16.16          27.08          64.96
     2.203              -20.59          16.16          65.06          39.92         -5.968          -12.5          85.11          28.44          -40.3          29.42          55.44
     2.245              -21.07          14.13          64.53           40.1         -6.441         -12.42          97.23          24.35         -61.12          31.44          47.23
     2.287              -21.47          12.46          64.09          40.25         -6.828         -12.36          107.2          20.98         -78.21           33.1          40.49
      2.33              -21.79          11.13          63.74          40.37         -7.137          -12.3          115.1          18.31          -91.8          34.42          35.13
     2.372              -22.03          10.09          63.47          40.47         -7.378         -12.26          121.3          16.22         -102.4          35.45          30.93
     2.414              -22.23          9.278          63.26          40.54         -7.566         -12.23          126.1          14.59         -110.7          36.26          27.66
     2.457              -22.38          8.645          63.09           40.6         -7.713         -12.21          129.9          13.32         -117.2          36.88          25.11
     2.499              -22.49          8.147          62.96          40.64         -7.829         -12.19          132.8          12.31         -122.3          37.38           23.1
